<svg width="24" height="24" viewBox="0 0 24 24" fill="none" xmlns="http://www.w3.org/2000/svg">
<g clip-path="url(#clip0_480_1701)">
<rect width="24" height="24" fill="white"/>
<path d="M12 24C18.6274 24 24 18.6274 24 12C24 5.37258 18.6274 0 12 0C5.37258 0 0 5.37258 0 12C0 18.6274 5.37258 24 12 24Z" fill="#3C5A9A"/>
<path d="M14.9911 6H12.9533C11.744 6 10.399 6.51855 10.399 8.30575C10.4049 8.92849 10.399 9.52489 10.399 10.1961H9V12.4658H10.4423V19H13.0925V12.4227H14.8417L15 10.1897H13.0468C13.0468 10.1897 13.0512 9.19637 13.0468 8.90791C13.0468 8.20164 13.7676 8.24209 13.811 8.24209C14.154 8.24209 14.8209 8.24313 14.9921 8.24209V6H14.9911Z" fill="white"/>
</g>
<defs>
<clipPath id="clip0_480_1701">
<rect width="24" height="24" fill="white"/>
</clipPath>
</defs>
</svg>
