<svg width="20" height="20" viewBox="0 0 20 20" fill="none" xmlns="http://www.w3.org/2000/svg">
<path d="M19.6005 10.2224C19.6123 9.53467 19.5412 8.84693 19.391 8.17896H9.99982V11.8904H15.5136C15.3041 13.2066 14.565 14.3765 13.4701 15.1354L13.4504 15.2579L16.4187 17.5583L16.6242 17.5781C18.5096 15.835 19.6005 13.2698 19.6005 10.2224Z" fill="#4285F4"/>
<path d="M10.0002 20C12.6998 20 14.9685 19.1107 16.6247 17.5771L13.4705 15.1305C12.4468 15.8182 11.2334 16.1661 10.0042 16.1305C7.41131 16.1146 5.11883 14.4388 4.31252 11.9724L4.19395 11.9843L1.10699 14.3716L1.0675 14.4823C2.75915 17.8696 6.21764 20.004 10.0002 20Z" fill="#34A853"/>
<path d="M4.30826 11.9765C4.09089 11.3402 3.97627 10.6722 3.97627 9.99633C3.98021 9.32436 4.09089 8.65639 4.30037 8.01607L4.29637 7.88567L1.16993 5.4588L1.06719 5.50623C-0.355728 8.33229 -0.355728 11.6603 1.06719 14.4864L4.30826 11.9765Z" fill="#FBBC05"/>
<path d="M9.99976 3.86621C11.4346 3.8425 12.8179 4.37608 13.8653 5.35632L16.6874 2.60141C14.8772 0.901818 12.478 -0.0270567 9.99581 0.000600314C6.21322 0.000600314 2.75479 2.13103 1.05914 5.51438L4.29233 8.02428C5.10652 5.55786 7.40295 3.88199 9.99976 3.86621Z" fill="#EB4335"/>
</svg>
